<svg width="175" height="59" viewBox="0 0 175 59" fill="none" xmlns="http://www.w3.org/2000/svg">
<path d="M16.8743 12.4903C17.7608 11.6986 18.8627 11.2672 19.9986 11.2672C21.1344 11.2672 22.2364 11.6986 23.1229 12.4903L38.1229 25.8691C39.3086 26.9266 40 28.5289 40 30.2235V52.582C40 54.0604 39.4732 55.4783 38.5355 56.5237C37.5979 57.5691 36.3261 58.1564 35 58.1564H25C24.4317 58.1564 23.8866 57.9047 23.4848 57.4567C23.0829 57.0087 22.8571 56.401 22.8571 55.7674V39.0439H17.1429V55.7674C17.1429 56.401 16.9171 57.0087 16.5152 57.4567C16.1134 57.9047 15.5683 58.1564 15 58.1564H5C3.67392 58.1564 2.40215 57.5691 1.46447 56.5237C0.526784 55.4783 0 54.0604 0 52.582V30.2203C0 28.5289 0.691429 26.9266 1.87714 25.8691L16.8743 12.4903ZM20.4457 16.2204C20.3191 16.1077 20.162 16.0464 20 16.0464C19.838 16.0464 19.6809 16.1077 19.5543 16.2204L4.55429 29.5992C4.47025 29.674 4.40245 29.769 4.35595 29.8771C4.30945 29.9852 4.28544 30.1036 4.28571 30.2235V52.582C4.28571 53.0215 4.60571 53.3783 5 53.3783H12.8571V36.6549C12.8571 36.0213 13.0829 35.4136 13.4848 34.9655C13.8866 34.5175 14.4317 34.2658 15 34.2658H25C25.5683 34.2658 26.1134 34.5175 26.5152 34.9655C26.9171 35.4136 27.1429 36.0213 27.1429 36.6549V53.3783H35C35.1894 53.3783 35.3711 53.2944 35.5051 53.1451C35.639 52.9957 35.7143 52.7932 35.7143 52.582V30.2203C35.7141 30.101 35.6899 29.9832 35.6434 29.8757C35.5969 29.7681 35.5294 29.6737 35.4457 29.5992L20.4457 16.2204Z" fill="#ECBC3E"/>
<path d="M56.0916 37V9.36364H62.7713V20.456H73.6612V9.36364H80.3274V37H73.6612V25.8942H62.7713V37H56.0916ZM94.1928 37.3913C92.0157 37.3913 90.1445 36.946 88.5792 36.0554C87.0228 35.1558 85.8219 33.9053 84.9762 32.304C84.1396 30.6937 83.7212 28.8269 83.7212 26.7038C83.7212 24.5717 84.1396 22.705 84.9762 21.1037C85.8219 19.4934 87.0228 18.2429 88.5792 17.3523C90.1445 16.4527 92.0157 16.0028 94.1928 16.0028C96.3699 16.0028 98.2366 16.4527 99.793 17.3523C101.358 18.2429 102.559 19.4934 103.396 21.1037C104.242 22.705 104.664 24.5717 104.664 26.7038C104.664 28.8269 104.242 30.6937 103.396 32.304C102.559 33.9053 101.358 35.1558 99.793 36.0554C98.2366 36.946 96.3699 37.3913 94.1928 37.3913ZM94.2333 32.4119C95.025 32.4119 95.6952 32.169 96.244 31.6832C96.7927 31.1974 97.2111 30.5227 97.4989 29.6591C97.7958 28.7955 97.9442 27.7969 97.9442 26.6634C97.9442 25.5118 97.7958 24.5043 97.4989 23.6406C97.2111 22.777 96.7927 22.1023 96.244 21.6165C95.6952 21.1307 95.025 20.8878 94.2333 20.8878C93.4147 20.8878 92.7219 21.1307 92.1552 21.6165C91.5974 22.1023 91.1701 22.777 90.8732 23.6406C90.5853 24.5043 90.4414 25.5118 90.4414 26.6634C90.4414 27.7969 90.5853 28.7955 90.8732 29.6591C91.1701 30.5227 91.5974 31.1974 92.1552 31.6832C92.7219 32.169 93.4147 32.4119 94.2333 32.4119ZM121.418 28.0533V16.2727H128.003V37H121.714V33.1406H121.499C121.04 34.4091 120.257 35.4167 119.151 36.1634C118.053 36.901 116.726 37.2699 115.17 37.2699C113.757 37.2699 112.516 36.946 111.445 36.2983C110.375 35.6506 109.543 34.7464 108.949 33.5859C108.355 32.4164 108.054 31.049 108.045 29.4837V16.2727H114.643V28.1882C114.652 29.3127 114.949 30.1989 115.534 30.8466C116.119 31.4943 116.915 31.8182 117.923 31.8182C118.579 31.8182 119.169 31.6742 119.69 31.3864C120.221 31.0895 120.639 30.6622 120.945 30.1044C121.26 29.5376 121.418 28.8539 121.418 28.0533ZM132.257 37V33.2351L141.865 21.5355V21.4006H132.594V16.2727H149.732V20.402L140.826 31.7372V31.8722H150.056V37H132.257ZM158.355 44.7727C157.563 44.7727 156.817 44.7098 156.115 44.5838C155.413 44.4669 154.81 44.3094 154.307 44.1115L155.764 39.321C156.412 39.5369 156.997 39.6629 157.518 39.6989C158.049 39.7348 158.503 39.6494 158.881 39.4425C159.268 39.2446 159.565 38.8892 159.772 38.3764L160.028 37.7557L152.66 16.2727H159.569L163.388 31.0625H163.604L167.477 16.2727H174.427L166.613 38.9837C166.236 40.1172 165.7 41.1158 165.008 41.9794C164.324 42.852 163.438 43.5357 162.349 44.0305C161.27 44.5253 159.938 44.7727 158.355 44.7727Z" fill="white"/>
</svg>
