<svg width="114" height="28" viewBox="0 0 114 28" fill="none" xmlns="http://www.w3.org/2000/svg">
<g id="Social media iocn">
<path id="Vector" d="M14 0C6.27991 0 0 6.27991 0 14C0 21.7201 6.27991 28 14 28C21.7201 28 28 21.7201 28 14C28 6.27991 21.7201 0 14 0ZM20.8399 11.2755C20.846 11.4191 20.8496 11.5652 20.8496 11.7119C20.8496 16.1663 17.4574 21.3043 11.2554 21.3043C9.35139 21.3043 7.57826 20.7462 6.08696 19.7893C6.35052 19.821 6.61774 19.8362 6.89104 19.8362C8.47122 19.8362 9.92539 19.2981 11.0783 18.3936C9.60278 18.3668 8.35861 17.3898 7.92826 16.0519C8.13461 16.0915 8.34583 16.1128 8.56374 16.1128C8.87113 16.1128 9.16939 16.072 9.45122 15.9941C7.91 15.683 6.748 14.322 6.748 12.6877C6.748 12.673 6.748 12.659 6.748 12.645C7.2027 12.8977 7.72191 13.0498 8.27522 13.0675C7.36948 12.4618 6.77539 11.4307 6.77539 10.2608C6.77539 9.64296 6.94096 9.06409 7.2313 8.56496C8.89487 10.6047 11.3796 11.9469 14.1814 12.0881C14.1236 11.841 14.0931 11.5841 14.0931 11.3199C14.0931 9.45791 15.6027 7.94835 17.4653 7.94835C18.435 7.94835 19.3109 8.35739 19.9257 9.01296C20.6932 8.862 21.4157 8.58139 22.067 8.19548C21.8157 8.98191 21.2806 9.64296 20.5837 10.0605C21.2666 9.97774 21.9155 9.79757 22.5211 9.52913C22.0695 10.2054 21.4979 10.8001 20.8399 11.2755Z" fill="white"/>
<path id="Vector_2" d="M43.5 8C43.5 3.85814 46.8581 0.5 51 0.5H63C67.1419 0.5 70.5 3.85814 70.5 8V20C70.5 24.1419 67.1419 27.5 63 27.5H51C46.8581 27.5 43.5 24.1419 43.5 20V8ZM63 1.5H51C47.4099 1.5 44.5 4.40986 44.5 8V20C44.5 23.5901 47.4099 26.5 51 26.5H63C66.5901 26.5 69.5 23.5901 69.5 20V8C69.5 4.40986 66.5901 1.5 63 1.5ZM47.5 8C47.5 6.06614 49.0661 4.5 51 4.5H63C64.9339 4.5 66.5 6.06614 66.5 8V20C66.5 21.9339 64.9339 23.5 63 23.5H51C49.0661 23.5 47.5 21.9339 47.5 20V8ZM65.5 7C65.5 6.17186 64.8281 5.5 64 5.5C63.1719 5.5 62.5 6.17186 62.5 7C62.5 7.82814 63.1719 8.5 64 8.5C64.8281 8.5 65.5 7.82814 65.5 7ZM63.5 14C63.5 10.4099 60.5901 7.5 57 7.5C53.4099 7.5 50.5 10.4099 50.5 14C50.5 17.5901 53.4099 20.5 57 20.5C60.5901 20.5 63.5 17.5901 63.5 14ZM54.5251 11.5251C55.1815 10.8687 56.0717 10.5 57 10.5C57.9283 10.5 58.8185 10.8687 59.4749 11.5251C60.1313 12.1815 60.5 13.0717 60.5 14C60.5 14.9283 60.1313 15.8185 59.4749 16.4749C58.8185 17.1313 57.9283 17.5 57 17.5C56.0717 17.5 55.1815 17.1313 54.5251 16.4749C53.8687 15.8185 53.5 14.9283 53.5 14C53.5 13.0717 53.8687 12.1815 54.5251 11.5251Z" fill="white" stroke="white"/>
<path id="Vector_3" d="M100 0C92.2682 0 86 6.3004 86 14.072C86 21.1271 91.1705 26.9523 97.9076 27.9699V17.8017H94.4439V14.1027H97.9076V11.6413C97.9076 7.56624 99.8829 5.77718 103.252 5.77718C104.866 5.77718 105.72 5.89743 106.124 5.95244V9.18131H103.825C102.395 9.18131 101.895 10.5444 101.895 12.0808V14.1027H106.087L105.519 17.8017H101.895V28C108.728 27.0681 114 21.1956 114 14.072C114 6.3004 107.732 0 100 0Z" fill="white"/>
</g>
</svg>
